<svg xmlns="http://www.w3.org/2000/svg" viewBox="0 0 1000 230" role="img" aria-labelledby="title desc"><title id="title">语言指令与机器人动作对齐数据：流程</title><desc id="desc">语言指令经场景指代和任务阶段解析后绑定机器人动作的流程</desc>
<defs><marker id="arrow" markerWidth="8" markerHeight="8" refX="6" refY="4" orient="auto"><path d="M0 0 L8 4 L0 8" fill="none" stroke="#3b748c" stroke-width="1.6"/></marker></defs>
<rect width="1000" height="230" rx="20" fill="#f3f8fc"/>
<text x="32" y="42" font-size="22" font-weight="700" fill="#17324d">语言指令与机器人动作对齐数据</text>
<text x="32" y="67" font-size="14" fill="#466178">从输入到可复用样本的处理链</text>
<rect x="25" y="89" width="170" height="100" rx="16" fill="#fff" stroke="#3b748c" stroke-width="2"/><text x="110.0" y="127" text-anchor="middle" font-size="19" font-weight="700" fill="#17324d">指令采集</text><text x="110.0" y="158" text-anchor="middle" font-size="13" fill="#466178">语言·手势·上下文</text><rect x="220" y="89" width="170" height="100" rx="16" fill="#fff" stroke="#3b748c" stroke-width="2"/><text x="305.0" y="127" text-anchor="middle" font-size="19" font-weight="700" fill="#17324d">实体定位</text><text x="305.0" y="158" text-anchor="middle" font-size="13" fill="#466178">场景中的目标</text><rect x="415" y="89" width="170" height="100" rx="16" fill="#fff" stroke="#3b748c" stroke-width="2"/><text x="500.0" y="127" text-anchor="middle" font-size="19" font-weight="700" fill="#17324d">阶段识别</text><text x="500.0" y="158" text-anchor="middle" font-size="13" fill="#466178">当前子任务状态</text><rect x="610" y="89" width="170" height="100" rx="16" fill="#fff" stroke="#3b748c" stroke-width="2"/><text x="695.0" y="127" text-anchor="middle" font-size="19" font-weight="700" fill="#17324d">动作绑定</text><text x="695.0" y="158" text-anchor="middle" font-size="13" fill="#466178">坐标与控制目标</text><rect x="805" y="89" width="170" height="100" rx="16" fill="#fff" stroke="#3b748c" stroke-width="2"/><text x="890.0" y="127" text-anchor="middle" font-size="19" font-weight="700" fill="#17324d">成对评估</text><text x="890.0" y="158" text-anchor="middle" font-size="13" fill="#466178">语义改写与变化</text><path d="M 195 139 h 20" stroke="#3b748c" stroke-width="3" marker-end="url(#arrow)"/><path d="M 390 139 h 20" stroke="#3b748c" stroke-width="3" marker-end="url(#arrow)"/><path d="M 585 139 h 20" stroke="#3b748c" stroke-width="3" marker-end="url(#arrow)"/><path d="M 780 139 h 20" stroke="#3b748c" stroke-width="3" marker-end="url(#arrow)"/>
</svg>
