<svg xmlns="http://www.w3.org/2000/svg" width="1120" height="420" viewBox="0 0 1120 420" role="img" aria-labelledby="title desc">
<title id="title">导航与时变地图：字段契约</title><desc id="desc">导航与时变地图的 episode、时间序列、事件与结果字段关系</desc>
<rect width="1120" height="420" fill="#f8fafc"/><rect x="1" y="1" width="1118" height="418" rx="18" fill="none" stroke="#dbe4ea"/>
<rect x="0" y="0" width="1120" height="9" fill="#3e8065"/><text x="40" y="59" font-size="27" font-weight="700" fill="#173047" font-family="sans-serif">导航与时变地图：字段契约</text>
<rect x="40" y="87" width="1040" height="49" rx="11" fill="#3e8065"/><text x="560" y="119" text-anchor="middle" fill="white" font-size="19" font-weight="700" font-family="sans-serif">episode_id 串联来源、时间、动作与结果</text><rect x="40" y="160" width="230" height="165" rx="14" fill="white" stroke="#d4e0e8" stroke-width="2"/><rect x="40" y="160" width="230" height="46" rx="14" fill="#3e8065"/><rect x="40" y="186" width="230" height="20" fill="#3e8065"/><text x="155" y="190" text-anchor="middle" fill="white" font-size="19" font-weight="700" font-family="sans-serif">场景访问</text><text x="58" y="248" fill="#173047" font-size="16" font-family="sans-serif">scene_id / visit_id</text><text x="58" y="284" fill="#526577" font-size="16" font-family="sans-serif">地图版本与变化</text><rect x="310" y="160" width="230" height="165" rx="14" fill="white" stroke="#d4e0e8" stroke-width="2"/><rect x="310" y="160" width="230" height="46" rx="14" fill="#3e8065"/><rect x="310" y="186" width="230" height="20" fill="#3e8065"/><text x="425" y="190" text-anchor="middle" fill="white" font-size="19" font-weight="700" font-family="sans-serif">观测证据</text><text x="328" y="248" fill="#173047" font-size="16" font-family="sans-serif">传感器位姿</text><text x="328" y="284" fill="#526577" font-size="16" font-family="sans-serif">原始帧与置信度</text><rect x="580" y="160" width="230" height="165" rx="14" fill="white" stroke="#d4e0e8" stroke-width="2"/><rect x="580" y="160" width="230" height="46" rx="14" fill="#3e8065"/><rect x="580" y="186" width="230" height="20" fill="#3e8065"/><text x="695" y="190" text-anchor="middle" fill="white" font-size="19" font-weight="700" font-family="sans-serif">目标与规划</text><text x="598" y="248" fill="#173047" font-size="16" font-family="sans-serif">指令 / 目标实体</text><text x="598" y="284" fill="#526577" font-size="16" font-family="sans-serif">候选与选中路点</text><rect x="850" y="160" width="230" height="165" rx="14" fill="white" stroke="#d4e0e8" stroke-width="2"/><rect x="850" y="160" width="230" height="46" rx="14" fill="#3e8065"/><rect x="850" y="186" width="230" height="20" fill="#3e8065"/><text x="965" y="190" text-anchor="middle" fill="white" font-size="19" font-weight="700" font-family="sans-serif">执行结果</text><text x="868" y="248" fill="#173047" font-size="16" font-family="sans-serif">实际路径 / 碰撞</text><text x="868" y="284" fill="#526577" font-size="16" font-family="sans-serif">到达与终止原因</text><path d="M 560 136 L 560 150 M 150 150 L 960 150" stroke="#3e8065" stroke-width="2" fill="none"/><path d="M 155 150 L 155 160" stroke="#3e8065" stroke-width="2"/><path d="M 425 150 L 425 160" stroke="#3e8065" stroke-width="2"/><path d="M 695 150 L 695 160" stroke="#3e8065" stroke-width="2"/><path d="M 965 150 L 965 160" stroke="#3e8065" stroke-width="2"/><rect x="40" y="350" width="1040" height="42" rx="9" fill="#e8eff4"/><text x="560" y="377" text-anchor="middle" fill="#415468" font-size="16" font-family="sans-serif">关键关联：scene_id + visit_id + map_version + entity_id</text></svg>
