<svg xmlns="http://www.w3.org/2000/svg" width="1120" height="420" viewBox="0 0 1120 420" role="img" aria-labelledby="title desc">
<title id="title">奖励与价值反馈：字段契约</title><desc id="desc">奖励与价值反馈的 episode、时间序列、事件与结果字段关系</desc>
<rect width="1120" height="420" fill="#f8fafc"/><rect x="1" y="1" width="1118" height="418" rx="18" fill="none" stroke="#dbe4ea"/>
<rect x="0" y="0" width="1120" height="9" fill="#9a6a37"/><text x="40" y="59" font-size="27" font-weight="700" fill="#173047" font-family="sans-serif">奖励与价值反馈：字段契约</text>
<rect x="40" y="87" width="1040" height="49" rx="11" fill="#9a6a37"/><text x="560" y="119" text-anchor="middle" fill="white" font-size="19" font-weight="700" font-family="sans-serif">episode_id 串联来源、时间、动作与结果</text><rect x="40" y="160" width="230" height="165" rx="14" fill="white" stroke="#d4e0e8" stroke-width="2"/><rect x="40" y="160" width="230" height="46" rx="14" fill="#9a6a37"/><rect x="40" y="186" width="230" height="20" fill="#9a6a37"/><text x="155" y="190" text-anchor="middle" fill="white" font-size="19" font-weight="700" font-family="sans-serif">数据来源</text><text x="58" y="248" fill="#173047" font-size="16" font-family="sans-serif">行为策略版本</text><text x="58" y="284" fill="#526577" font-size="16" font-family="sans-serif">离线 / 在线来源</text><rect x="310" y="160" width="230" height="165" rx="14" fill="white" stroke="#d4e0e8" stroke-width="2"/><rect x="310" y="160" width="230" height="46" rx="14" fill="#9a6a37"/><rect x="310" y="186" width="230" height="20" fill="#9a6a37"/><text x="425" y="190" text-anchor="middle" fill="white" font-size="19" font-weight="700" font-family="sans-serif">状态转移</text><text x="328" y="248" fill="#173047" font-size="16" font-family="sans-serif">观测 / 动作</text><text x="328" y="284" fill="#526577" font-size="16" font-family="sans-serif">终止 / 截断</text><rect x="580" y="160" width="230" height="165" rx="14" fill="white" stroke="#d4e0e8" stroke-width="2"/><rect x="580" y="160" width="230" height="46" rx="14" fill="#9a6a37"/><rect x="580" y="186" width="230" height="20" fill="#9a6a37"/><text x="695" y="190" text-anchor="middle" fill="white" font-size="19" font-weight="700" font-family="sans-serif">反馈信号</text><text x="598" y="248" fill="#173047" font-size="16" font-family="sans-serif">奖励值与来源</text><text x="598" y="284" fill="#526577" font-size="16" font-family="sans-serif">人类干预范围</text><rect x="850" y="160" width="230" height="165" rx="14" fill="white" stroke="#d4e0e8" stroke-width="2"/><rect x="850" y="160" width="230" height="46" rx="14" fill="#9a6a37"/><rect x="850" y="186" width="230" height="20" fill="#9a6a37"/><text x="965" y="190" text-anchor="middle" fill="white" font-size="19" font-weight="700" font-family="sans-serif">价值估计</text><text x="868" y="248" fill="#173047" font-size="16" font-family="sans-serif">候选动作 Q 值</text><text x="868" y="284" fill="#526577" font-size="16" font-family="sans-serif">critic 版本与不确定性</text><path d="M 560 136 L 560 150 M 150 150 L 960 150" stroke="#9a6a37" stroke-width="2" fill="none"/><path d="M 155 150 L 155 160" stroke="#9a6a37" stroke-width="2"/><path d="M 425 150 L 425 160" stroke="#9a6a37" stroke-width="2"/><path d="M 695 150 L 695 160" stroke="#9a6a37" stroke-width="2"/><path d="M 965 150 L 965 160" stroke="#9a6a37" stroke-width="2"/><rect x="40" y="350" width="1040" height="42" rx="9" fill="#e8eff4"/><text x="560" y="377" text-anchor="middle" fill="#415468" font-size="16" font-family="sans-serif">关键关联：episode_id + step_id + reward_version + policy_id</text></svg>
